g Augment
v -189.00789 -5.378939E-15 -74.82752
v -616.8946 -1.2207852E-14 -44.553547
v -691.10516 -1.6578573E-14 -123.995125
v -121.83497 -4.9615916E-15 -132.8887
v -570.095 -4.015271E-15 -393.5669
v -51.735455 -3.2545301E-15 -478.48663
v -632.9826 6.5766317E-16 -436.3367
v -782.15173 -1.1102214E-14 -108.20872
v -616.8946 -1.2207852E-14 -44.553547
v -668.73663 -1.110222E-14 26.843416
v -189.00789 -5.378939E-15 -74.82752
v -173.75731 -1.110222E-14 2.90201
v -121.83497 -4.9615916E-15 -132.8887
v -50.48927 -1.110222E-14 -94.0192
v 29.160664 -1.110222E-14 -503.52698
v -287.6802 6.3765276E-15 -555.4128
v -345.5649 1.11022286E-14 -610.6864
v -291.85764 1.11022286E-14 -732.13416
v -122.73302 -3.598201E-13 -581.6637
v -39.002693 -3.663736E-13 -609.89453
v -223.97948 7.7972915E-15 -691.785
v -236.19647 -1.110222E-14 -1051.2317
v -177.30426 -4.3816404E-15 -960.43256
v -117.669586 -1.110222E-14 -1020.4159
v -186.22731 -8.952887E-15 -965.89795
vt 0.67390966 0.10975808
vt 0.27766663 0.07842624
vt 0.20226926 0.14182872
vt 0.7460631 0.16884077
vt 0.32042122 0.38996387
vt 0.8012407 0.46873367
vt 0.262088 0.42963624
vt 0.12372178 0.12527156
vt 0.27766663 0.07842624
vt 0.22892326 0
vt 0.67390966 0.10975808
vt 0.68805575 0.022207558
vt 0.7460631 0.16884077
vt 0.80239666 0.11210966
vt 0.8762783 0.49196053
vt 0.5823833 0.5400888
vt 0.5286906 0.5913594
vt 0.5785084 0.7040118
vt 0.7353848 0.5644386
vt 0.81305134 0.5906249
vt 0.6414708 0.66658473
vt 0.6301385 1
vt 0.6847657 0.9157767
vt 0.74008155 0.971416
vt 0.6764889 0.9208462
vn -0 1 0
vn -0 1 0
vn -0 1 0
vn -0 1 0
vn -0 1 0
vn -0 1 0
vn -0 1 0
vn -0 1 0
vn -0 1 0
vn -0 1 0
vn -0 1 0
vn -0 1 0
vn -0 1 0
vn -0 1 0
vn -0 1 0
vn -0 1 0
vn -0 1 0
vn -0 1 0
vn -0 1 0
vn -0 1 0
vn -0 1 0
vn -0 1 0
vn -0 1 0
vn -0 1 0
vn -0 1 0
g Augment_0
f 3/3/3 2/2/2 1/1/1
f 3/3/3 1/1/1 4/4/4
f 5/5/5 3/3/3 4/4/4
f 5/5/5 4/4/4 6/6/6
f 5/5/5 7/7/7 3/3/3
f 7/7/7 8/8/8 3/3/3
f 9/9/9 3/3/3 8/8/8
f 10/10/10 9/9/9 8/8/8
f 11/11/11 9/9/9 10/10/10
f 12/12/12 11/11/11 10/10/10
f 13/13/13 11/11/11 12/12/12
f 14/14/14 13/13/13 12/12/12
f 14/14/14 15/15/15 13/13/13
f 15/15/15 6/6/6 13/13/13
f 5/5/5 16/16/16 7/7/7
f 16/16/16 5/5/5 6/6/6
f 16/16/16 17/17/17 7/7/7
f 17/17/17 16/16/16 18/18/18
f 19/19/19 6/6/6 15/15/15
f 16/16/16 6/6/6 19/19/19
f 20/20/20 19/19/19 15/15/15
f 16/16/16 21/21/21 18/18/18
f 21/21/21 16/16/16 19/19/19
f 18/18/18 21/21/21 22/22/22
f 23/23/23 19/19/19 20/20/20
f 21/21/21 19/19/19 23/23/23
f 24/24/24 23/23/23 20/20/20
f 22/22/22 25/25/25 24/24/24
f 21/21/21 25/25/25 22/22/22
f 25/25/25 23/23/23 24/24/24
f 23/23/23 25/25/25 21/21/21
