g DOM_Logo
v -7842.5986 218.59503 -8009.646
v -7852.2515 214.85582 -8007.8584
v -7859.5854 214.38408 -8007.6323
v -7841.237 230.93875 -8015.5474
v -7834.4375 224.80405 -8012.615
v -7831.7705 226.83296 -8013.584
v -7824.365 235.51404 -8017.7344
v -7815.3306 250.92749 -8025.1035
v -7901.8135 285.5915 -8041.676
v -7864.091 214.09378 -8007.494
v -7874.3613 215.17838 -8008.012
v -7881.406 217.12651 -8008.9434
v -7889.788 223.09544 -8011.7974
v -7896.1274 235.1755 -8017.5728
v -7899.005 244.4122 -8021.988
v -7901.3496 267.87903 -8033.2075
v -7901.8135 277.16116 -8037.645
v -7839.364 340.81638 -8068.0786
v -7811.078 260.99298 -8029.9155
v -7802.253 291.26288 -8044.387
v -7841.2363 343.3165 -8069.275
v -7799.4033 305.57547 -8051.23
v -7793.0884 337.29315 -8066.394
v -7787.686 407.3823 -8099.9033
v -7900.6606 326.30524 -8061.141
v -7901.8135 317.72345 -8057.038
v -7900.6606 336.94986 -8066.23
v -7918.9497 326.30524 -8061.141
v -7917.485 317.72345 -8057.039
v -7895.34 344.77466 -8069.9717
v -7917.485 272.52023 -8035.4272
v -7869.5166 354.82275 -8074.775
v -7879.264 354.82275 -8074.775
v -7888.814 350.20367 -8072.568
v -7869.516 366.30658 -8080.265
v -7841.2363 455.6943 -8123.001
v -7783.0063 515.5373 -8151.6123
v -7965.797 230.93846 -8015.5464
v -7917.485 239.44455 -8019.614
v -7917.485 199.95816 -8000.735
v -7923.8677 193.1108 -7997.462
v -7841.2363 118.56073 -7961.8193
v -8006.1025 267.30267 -8032.932
v -7762.682 199.95816 -8000.735
v -7756.8735 194.67215 -7998.2085
v -7716.676 230.93846 -8015.5474
v -7918.9497 336.95013 -8066.23
v -7762.683 301.80933 -8049.429
v -7923.957 344.77493 -8069.9717
v -7930.7197 350.20367 -8072.568
v -7940.312 354.82303 -8074.775
v -8028.077 287.12762 -8042.411
v -7654.3955 287.12762 -8042.41
v -7950.0947 354.82303 -8074.775
v -7716.676 455.6943 -8123.001
v -7592.115 343.3165 -8069.275
v -7762.683 414.18677 -8103.157
v -7762.683 497.20172 -8142.8457
v -7961.993 354.82303 -8074.775
v -7950.0947 366.30658 -8080.2656
v -8017.273 354.82303 -8074.775
v -8090.3574 343.3165 -8069.274
v -8017.273 366.30658 -8080.2656
v -7965.797 455.69452 -8123.0005
v -7961.993 366.30658 -8080.2656
v -7940.312 366.30658 -8080.2656
v -7940.312 366.34134 -8080.2827
v -7930.7197 370.43253 -8082.239
v -7923.957 376.45306 -8085.117
v -7918.9497 384.8803 -8089.1455
v -7918.9497 394.82437 -8093.8994
v -7900.6606 394.82437 -8093.8994
v -7903.5166 511.88312 -8149.8643
v -7841.2363 568.072 -8176.729
v -7895.34 376.45306 -8085.117
v -7900.6606 384.8803 -8089.1455
v -7888.814 370.43253 -8082.239
v -7879.264 366.30658 -8080.2656
v -7783.0063 596.6604 -8190.3955
v -7762.683 596.6604 -8190.3955
v -7762.683 497.20172 -8142.8457
v -7783.0063 515.5373 -8151.6123
vt 0.4299513 0.30631873
vt 0.42302847 0.30908254
vt 0.41908592 0.3125
vt 0.4375 0.3125
vt 0.4375 0.30567658
vt 0.43996614 0.3054668
vt 0.44850975 0.30657962
vt 0.46161175 0.31061935
vt 0.43750042 0.37329072
vt 0.416664 0.31459934
vt 0.41211346 0.32035628
vt 0.40966254 0.32497382
vt 0.4087764 0.33249938
vt 0.4123139 0.3423989
vt 0.41600674 0.3489802
vt 0.42788175 0.3632078
vt 0.43281147 0.36860272
vt 0.49954897 0.37267
vt 0.46934727 0.31408265
vt 0.49061006 0.3264898
vt 0.5 0.375
vt 0.5 0.33301985
vt 0.520809 0.3474911
vt 0.5624897 0.38375467
vt 0.4607218 0.39535627
vt 0.4553705 0.39116177
vt 0.46664202 0.4012765
vt 0.45154494 0.40453315
vt 0.44750723 0.39902502
vt 0.47366372 0.40295848
vt 0.42236483 0.37388414
vt 0.49220923 0.39558968
vt 0.48731863 0.40048024
vt 0.4799574 0.40270337
vt 0.49859595 0.4019764
vt 0.5624969 0.4374998
vt 0.6249968 0.44156682
vt 0.375 0.375
vt 0.40397176 0.3554895
vt 0.382012 0.3335287
vt 0.37500137 0.3329229
vt 0.375 0.25
vt 0.375 0.41544813
vt 0.4596841 0.25585473
vt 0.45965892 0.25000095
vt 0.5 0.25
vt 0.45746517 0.4104534
vt 0.5163315 0.31249505
vt 0.45923343 0.41738415
vt 0.4588766 0.42378008
vt 0.45666772 0.43112808
vt 0.375 0.4375
vt 0.5625 0.25
vt 0.45177257 0.4360358
vt 0.62499815 0.3749984
vt 0.625 0.25
vt 0.57883716 0.3749849
vt 0.625 0.42115986
vt 0.44580787 0.4419967
vt 0.45816505 0.44240728
vt 0.41807038 0.46972844
vt 0.375 0.5
vt 0.42445716 0.4761152
vt 0.5000294 0.5000912
vt 0.45212764 0.4484744
vt 0.46305564 0.43751672
vt 0.463111 0.4375
vt 0.46814314 0.4375
vt 0.47798097 0.435721
vt 0.48451173 0.4375
vt 0.48965105 0.4426409
vt 0.49882933 0.43346378
vt 0.5625 0.5
vt 0.625 0.5
vt 0.49122715 0.42052191
vt 0.4929091 0.42754355
vt 0.49148226 0.41422823
vt 0.4937054 0.40686697
vt 0.0030763901 0.30556536
vt 0 0.3536907
vt 0.2498924 0.3536799
vt 0.20451573 0.30565357
vn -0 0.43133226 0.9021931
vn -0 0.43133226 0.9021931
vn -0 0.43133226 0.9021931
vn -0 0.43133226 0.9021931
vn -0 0.43133226 0.9021931
vn -0 0.43133223 0.90219325
vn -0 0.43133223 0.90219325
vn -0 0.43133226 0.9021931
vn -0 0.43133226 0.9021931
vn -0 0.43133226 0.9021931
vn -0 0.43133226 0.9021931
vn -0 0.43133226 0.9021931
vn -0 0.43133226 0.9021931
vn -0 0.43133226 0.9021931
vn -0 0.43133226 0.9021931
vn -0 0.43133226 0.9021931
vn -0 0.43133226 0.9021931
vn -0 0.43133226 0.9021931
vn -0 0.43133226 0.9021931
vn -0 0.43133226 0.9021931
vn -0 0.43133226 0.9021931
vn -0 0.43133226 0.9021931
vn -0 0.43133226 0.9021931
vn -0 0.43133226 0.9021931
vn -0 0.43133226 0.9021931
vn -0 0.43133226 0.9021931
vn -0 0.43133226 0.9021931
vn -0 0.43133226 0.9021931
vn -0 0.43133226 0.9021931
vn -0 0.4313324 0.902193
vn -0 0.43133226 0.9021931
vn -0 0.43133226 0.9021931
vn -0 0.43133226 0.9021931
vn -0 0.43133226 0.9021931
vn -0 0.43133226 0.9021931
vn -0 0.43133226 0.9021931
vn -0 0.43133226 0.9021931
vn -0 0.43133226 0.9021931
vn -0 0.43133226 0.9021931
vn -0 0.43133226 0.9021931
vn -0 0.43133232 0.9021931
vn -0 0.43133226 0.9021931
vn -0 0.43133226 0.9021931
vn -0 0.43133226 0.9021931
vn -0 0.43133226 0.9021931
vn -0 0.43133226 0.9021931
vn -0 0.43133226 0.9021931
vn -0 0.43133226 0.9021931
vn -0 0.43133226 0.9021931
vn -0 0.43133226 0.9021931
vn -0 0.43133226 0.9021931
vn -0 0.43133226 0.9021931
vn -0 0.43133226 0.9021931
vn -0 0.43133226 0.9021931
vn -0 0.43133226 0.9021931
vn -0 0.43133226 0.9021931
vn -0 0.43133226 0.9021931
vn -0 0.43133226 0.9021931
vn -0 0.43133226 0.9021931
vn -0 0.43133226 0.9021931
vn -0 0.43133226 0.9021931
vn -0 0.43133226 0.9021931
vn -0 0.43133226 0.9021931
vn -0 0.43133226 0.9021931
vn -0 0.43133226 0.9021931
vn -0 0.43133226 0.9021931
vn -0 0.43133226 0.9021931
vn -0 0.43133226 0.9021931
vn -0 0.43133226 0.9021931
vn -0 0.43133226 0.9021931
vn -0 0.43133226 0.9021931
vn -0 0.43133226 0.9021931
vn -0 0.43133226 0.9021931
vn -0 0.43133226 0.9021931
vn -0 0.43133226 0.9021931
vn -0 0.43133226 0.9021931
vn -0 0.43133226 0.9021931
vn -0 0.43133226 0.9021931
vn -0 0.43133417 0.90219223
vn -0 0.43133417 0.90219223
vn -0 0.43133417 0.90219223
vn -0 0.43133417 0.90219223
g DOM_Logo_0
f 3/3/3 2/2/2 1/1/1
f 4/4/4 3/3/3 1/1/1
f 1/1/1 5/5/5 4/4/4
f 4/4/4 5/5/5 6/6/6
f 4/4/4 6/6/6 7/7/7
f 7/7/7 8/8/8 4/4/4
f 3/3/3 4/4/4 9/9/9
f 9/9/9 10/10/10 3/3/3
f 9/9/9 11/11/11 10/10/10
f 9/9/9 12/12/12 11/11/11
f 9/9/9 13/13/13 12/12/12
f 9/9/9 14/14/14 13/13/13
f 9/9/9 15/15/15 14/14/14
f 9/9/9 16/16/16 15/15/15
f 9/9/9 17/17/17 16/16/16
f 18/18/18 4/4/4 8/8/8
f 8/8/8 19/19/19 18/18/18
f 19/19/19 20/20/20 18/18/18
f 18/18/18 21/21/21 4/4/4
f 18/18/18 20/20/20 21/21/21
f 21/21/21 9/9/9 4/4/4
f 20/20/20 22/22/22 21/21/21
f 22/22/22 23/23/23 21/21/21
f 23/23/23 24/24/24 21/21/21
f 25/25/25 9/9/9 21/21/21
f 25/25/25 26/26/26 9/9/9
f 21/21/21 27/27/27 25/25/25
f 26/26/26 25/25/25 28/28/28
f 29/29/29 26/26/26 28/28/28
f 21/21/21 30/30/30 27/27/27
f 31/31/31 29/29/29 28/28/28
f 30/30/30 21/21/21 32/32/32
f 21/21/21 24/24/24 32/32/32
f 32/32/32 33/33/33 30/30/30
f 33/33/33 34/34/34 30/30/30
f 24/24/24 35/35/35 32/32/32
f 35/35/35 24/24/24 36/36/36
f 36/36/36 24/24/24 37/37/37
f 28/28/28 38/38/38 31/31/31
f 39/39/39 31/31/31 38/38/38
f 38/38/38 40/40/40 39/39/39
f 38/38/38 41/41/41 40/40/40
f 40/40/40 41/41/41 42/42/42
f 43/43/43 38/38/38 28/28/28
f 44/44/44 40/40/40 42/42/42
f 42/42/42 45/45/45 44/44/44
f 45/45/45 46/46/46 44/44/44
f 28/28/28 47/47/47 43/43/43
f 46/46/46 48/48/48 44/44/44
f 43/43/43 47/47/47 49/49/49
f 49/49/49 50/50/50 43/43/43
f 50/50/50 51/51/51 43/43/43
f 51/51/51 52/52/52 43/43/43
f 48/48/48 46/46/46 53/53/53
f 51/51/51 54/54/54 52/52/52
f 48/48/48 53/53/53 55/55/55
f 53/53/53 56/56/56 55/55/55
f 48/48/48 55/55/55 57/57/57
f 55/55/55 58/58/58 57/57/57
f 54/54/54 59/59/59 52/52/52
f 59/59/59 54/54/54 60/60/60
f 59/59/59 61/61/61 52/52/52
f 61/61/61 62/62/62 52/52/52
f 61/61/61 63/63/63 62/62/62
f 63/63/63 64/64/64 62/62/62
f 65/65/65 59/59/59 60/60/60
f 63/63/63 65/65/65 64/64/64
f 64/64/64 65/65/65 60/60/60
f 64/64/64 60/60/60 66/66/66
f 64/64/64 66/66/66 67/67/67
f 67/67/67 68/68/68 64/64/64
f 68/68/68 69/69/69 64/64/64
f 69/69/69 70/70/70 64/64/64
f 70/70/70 71/71/71 64/64/64
f 64/64/64 71/71/71 72/72/72
f 36/36/36 64/64/64 72/72/72
f 36/36/36 73/73/73 64/64/64
f 36/36/36 37/37/37 73/73/73
f 37/37/37 74/74/74 73/73/73
f 36/36/36 72/72/72 75/75/75
f 72/72/72 76/76/76 75/75/75
f 36/36/36 75/75/75 77/77/77
f 36/36/36 77/77/77 35/35/35
f 77/77/77 78/78/78 35/35/35
f 81/81/81 80/80/80 79/79/79
f 82/82/82 81/81/81 79/79/79
