g Klingon
v 4774.8496 0 -1260.8344
v 5169.966 0 -800.38525
v 5130.305 -4.7683716E-05 -742.44006
v 4704.6035 -4.7683716E-05 -1220.455
v 4777.594 0 -1713.7396
v 6697.5054 0 31.824865
v 4707.745 -4.7683716E-05 -1738.7776
v 5043.6426 0 -2059.2314
v 4997.8457 -4.7683716E-05 -2113.8728
v 6180.608 0 -2643.1838
v 6123.946 -4.7683716E-05 -2691.7952
v 6388.4355 0 -2844.1584
v 6300.763 -4.7683716E-05 -2853.2202
v 6213.4434 0 -3211.985
v 4081.3503 -4.7683716E-05 -2326.5193
v 4124.8535 -4.7683716E-05 -2967.141
v 6137.412 -4.7683716E-05 -3199.2424
v 5857.629 0 -3601.9587
v 5789.187 -4.7683716E-05 -3573.8179
v 5669.4414 0 -3872.948
v 5589.44 -4.7683716E-05 -3870.3342
v 5713.716 0 -4238.467
v 3733.517 1.6254663 -2052.5483
v 5647.228 -4.7683716E-05 -4293.3315
v 6142.8657 0 -4446.799
v 6101.7324 -4.7683716E-05 -4518.168
v 6657.8438 0 -4629.745
v 6602.13 -4.7683716E-05 -4685.375
v 6959.5337 0 -5034.5117
v 3316.2644 -4.7683716E-05 -4071.98
v 3170.161 -4.7683716E-05 -1459.0726
v 6889.5063 -4.7683716E-05 -5080.8623
v 5803.0566 -4.7683716E-05 -5079.7075
v 7337.178 0 -5402.031
v 7252.838 -4.7683716E-05 -5439.103
v 7344.13 0 -5703.1973
v 6071.29 -4.7683716E-05 -5188.6377
v 7275.2363 -4.7683716E-05 -5788.244
v 7597.396 0 -5632.563
v 6105.568 -4.7683716E-05 -5470.962
v 7574.4414 -4.7683716E-05 -5717.3823
v 7908.7744 0 -5890.896
v 7824.7275 -4.7683716E-05 -5911.993
v 7813.2964 0 -6234.6655
v 6246.752 -4.7683716E-05 -5934.3237
v 7742.9717 -4.7683716E-05 -6178.729
v 7581.752 0 -6389.7812
v 6885.928 -4.7683716E-05 -6074.6777
v 7572.462 -4.7683716E-05 -6299.9697
v 7340.9365 0 -6331.6484
v 7335.5317 -4.7683716E-05 -6244.415
v 7015.348 0 -6518.0527
v 6953.7485 -4.7683716E-05 -6242.8423
v 7030.6167 -4.7683716E-05 -6408.15
v 6885.194 0 -6309.2637
v 6822.3755 0 -6145.007
v 6181.4536 0 -5996.0737
v 6028.2334 1.7763568E-13 -5528.6133
v 5992.5454 0 -5240.725
v 5783.532 1.0658141E-12 -5166.335
v 5550.69 0 -5214.7046
v 5552.2153 -4.7683716E-05 -5125.7373
v 5235.634 -7.1054274E-13 -5209.721
v 5291.0967 -4.7683716E-05 -5119.5723
v 5138.15 3.5527137E-13 -4946.301
v 5215.9424 -4.7683716E-05 -4900.77
v 4928.2905 -8.881784E-14 -4800.654
v 4958.38 -4.7683716E-05 -4724.9326
v 4531.291 1.7763568E-13 -4684.6494
v 4548.8345 -4.7683716E-05 -4603.821
v 4191.8955 -7.1054274E-13 -4663.4434
v 4184.346 -4.7683716E-05 -4572.3975
v 3229.878 -5.3290705E-13 -4997.978
v 3072.9658 -4.7683716E-05 -4563.9746
v 3248.0254 -4.7683716E-05 -4914.354
v 2996.5852 -3.5527137E-13 -4920.5854
v 3081.669 -4.7683716E-05 -4862.247
v 2987.641 0 -4549.033
v 3232.209 0 -4059.1104
v 4055.662 0 -2956.3428
v 4019.5728 0 -2372.1167
v 3670.095 -1.6255257 -2099.811
v 3142.5315 0 -1524.5264
v 2963.9934 0 -1487.5111
v 2962.8118 -4.7683716E-05 -1416.4526
v 2790.8105 0 -1561.2054
v 6.1971903 -11.577614 -1315.4786
v -10.554789 -11.577614 -1254.0948
v 2773.934 -4.7683716E-05 -1493.0011
v 2627.5334 0 -1569.9631
v 2415.4543 -4.7683716E-05 -1429.4824
v 2641.637 -4.7683716E-05 -1501.3984
v 2422.7566 0 -1498.8066
v 2253.1245 0 -1528.5529
v 2199.783 -4.7683716E-05 -1472.8159
v 423.3551 -7.3589654 -1615.7078
v 2240.0547 0 -1622.8766
v 2169.2456 -4.7683716E-05 -1620.0254
v 2321.9368 0 -1875.828
v 37.347717 -7.457618 -1083.2687
v 2244.741 -4.7683716E-05 -1846.7983
v 2235.293 0 -2034.1719
v 2174.514 -4.7683716E-05 -1994.4861
v 1948.2856 0 -2250.9038
v 1921.4427 -4.7683716E-05 -2181.1824
v 1794.634 0 -2272.519
v 1304.5996 -4.7683716E-05 -1936.404
v 1812.6271 -4.7683716E-05 -2202.326
v 1264.8157 0 -1994.34
v 1157.0826 0 -1863.9991
v 1191.0228 -4.7683716E-05 -1801.2296
v 948.09973 -0.18918177 -1764.3047
v 956.1653 0.18913409 -1694.6792
v 826.3999 -3.6794589 -1778.953
v 829.61865 -3.6795065 -1711.6086
v 441.0571 -7.3589177 -1684.5924
v 336.38705 -14.717835 -1716.1787
v 350.52835 -13.59654 -1638.2711
v -59.840794 -11.577566 -1345.0441
v -90.69849 -11.577566 -1259.0295
v -34.39806 -7.4575706 -1052.7228
v 216.2654 4.420394 -848.58246
v 284.2425 4.4203463 -882.3807
v 263.33194 0 -162.59846
v 336.24274 -4.7683716E-05 -119.4319
v -81.3368 0 164.59065
v 6616.092 -4.7683716E-05 80.12101
v -9.050035 -4.7683716E-05 208.04922
v -203.53026 0 735.6019
v 6569.465 -4.7683716E-05 705.079
v 6658.0635 0 714.74963
v 7357.8584 0 1847.859
v -131.07169 -4.7683716E-05 719.3989
v 313.607 0 1488.1221
v 7272.4434 -4.7683716E-05 1838.2673
v 361.92896 -4.7683716E-05 1436.7748
v 3740.8215 -4.7683716E-05 1688.2091
v 877.7493 0 1818.6997
v 7247.4404 -4.7683716E-05 1866.508
v 7297.31 0 1930.7423
v 895.6621 -4.7683716E-05 1749.8647
v 1447.2188 0 1667.1478
v 1475.5377 -4.7683716E-05 1601.4679
v 1751.9742 0 2146.4497
v 1805.8542 -4.7683716E-05 2098.7197
v 2281.2217 0 2335.3953
v 5026.1035 -4.7683716E-05 2070.491
v 5868.3584 -4.7683716E-05 2158.8804
v 5858.4175 0 2229.4346
v 5013.0015 0 2139.2869
v 3744.243 0 1761.7153
v 2974.8135 -4.7683716E-05 1976.5219
v 3000.3804 0 2041.6931
v 2290.0935 -4.7683716E-05 2256.1597
v 7421.5166 0 -2300.6104
v 8144.0215 0 -2008.3485
v 8114.7734 0 -1944.6781
v 7696.738 0 -2237.9932
v 8569.626 0 -2205.0684
v 9078.193 0 -2228.2002
v 7740.987 0 -2309.2097
v 7754.123 0 -2239.538
v 7988.39 0 -2398.344
v 8055.3735 0 -2348.0723
v 8005.307 0 -2667.9421
v 8557.038 0 -1840.0637
v 8671.919 0 -1717.6672
v 8508.988 0 -1983.3324
v 8582.125 0 -1985.4045
v 8616.83 0 -2112.3093
v 9033.699 0 -2029.1188
v 8995.655 0 -1968.6805
v 9151.982 0 -2134.2866
v 9220.5205 0 -1851.119
v 9344.545 0 -1636.2651
v 9216.436 0 -2165.558
v 9131.689 0 -2273.4143
v 8798.428 0 -2536.201
v 8845.136 0 -2588.8894
v 8473.549 0 -2766.7642
v 8453.246 0 -2867.0098
v 8356.019 0 -2576.7507
v 8318.48 0 -2649.1316
v 8070.798 0 -2593.8823
vt 0.5618948 0.40656912
vt 0.6063455 0.3547684
vt 0.6018837 0.34824952
vt 0.5539921 0.40202633
vt 0.5622036 0.4575211
vt 0.77819425 0.26114446
vt 0.5543454 0.46033785
vt 0.59213406 0.49638903
vt 0.58698195 0.5025363
vt 0.7200431 0.5620839
vt 0.71366864 0.5675527
vt 0.7434238 0.5846937
vt 0.7335607 0.58571315
vt 0.72373706 0.62607425
vt 0.48387587 0.526459
vt 0.48876998 0.5985292
vt 0.71518356 0.62464064
vt 0.6837079 0.6699464
vt 0.6760081 0.66678053
vt 0.6625366 0.70043284
vt 0.65353644 0.70013875
vt 0.66751754 0.7415539
vt 0.44474453 0.4956372
vt 0.66003776 0.74772614
vt 0.71579707 0.7649911
vt 0.71116966 0.7730204
vt 0.7737323 0.78557277
vt 0.7674646 0.79183125
vt 0.8076725 0.83110905
vt 0.39780343 0.722824
vt 0.38136673 0.42887098
vt 0.7997945 0.8363236
vt 0.6775684 0.8361937
vt 0.85015756 0.8724552
vt 0.8406694 0.87662584
vt 0.8509398 0.9063365
vt 0.7077447 0.8484483
vt 0.8431893 0.91590434
vt 0.87943226 0.8983901
vt 0.711601 0.88021
vt 0.8768499 0.9079323
vt 0.91446245 0.9274527
vt 0.9050071 0.9298262
vt 0.90372115 0.96612686
vt 0.72748435 0.93233836
vt 0.89580953 0.9598339
vt 0.8776724 0.9835775
vt 0.799392 0.94812816
vt 0.87662715 0.97347367
vt 0.8505805 0.9770374
vt 0.84997237 0.9672237
vt 0.8139517 0.99800795
vt 0.8070216 0.9670468
vt 0.8156694 0.9856439
vt 0.79930925 0.97451925
vt 0.79224217 0.9560404
vt 0.72013825 0.9392853
vt 0.7029008 0.8866957
vt 0.698886 0.8543083
vt 0.67537194 0.8459394
vt 0.64917713 0.85138077
vt 0.6493487 0.84137195
vt 0.61373323 0.85082036
vt 0.61997277 0.8406785
vt 0.6027662 0.82118547
vt 0.6115179 0.8160632
vt 0.579157 0.8048001
vt 0.582542 0.7962814
vt 0.53449446 0.79174954
vt 0.5364681 0.7826564
vt 0.49631223 0.7893639
vt 0.49546298 0.77912116
vt 0.38808492 0.8269991
vt 0.37043226 0.77817345
vt 0.39012653 0.81759137
vt 0.36183938 0.8182924
vt 0.37141138 0.8117292
vt 0.36083323 0.77649266
vt 0.38834718 0.7213762
vt 0.480986 0.5973144
vt 0.47692588 0.5315888
vt 0.43760946 0.5009543
vt 0.37825844 0.43623453
vt 0.35817286 0.43207029
vt 0.3580399 0.42407626
vt 0.33868968 0.4403609
vt 0.02541972 0.4127166
vt 0.023535108 0.40581086
vt 0.33679107 0.43268794
vt 0.32032096 0.44134617
vt 0.296462 0.42554203
vt 0.3219076 0.43363258
vt 0.29728353 0.4333411
vt 0.27819982 0.4366875
vt 0.27219886 0.43041715
vt 0.07235013 0.44649246
vt 0.27672946 0.44729903
vt 0.2687634 0.4469782
vt 0.28594124 0.4757561
vt 0.028924163 0.3865929
vt 0.27725673 0.4724902
vt 0.2761938 0.49356982
vt 0.26935613 0.48910517
vt 0.24390537 0.51795226
vt 0.24088553 0.51010853
vt 0.22661948 0.52038395
vt 0.1714904 0.48257098
vt 0.22864372 0.5124873
vt 0.16701472 0.48908877
vt 0.15489472 0.47442532
vt 0.15871298 0.46736372
vt 0.13138407 0.4632097
vt 0.13229145 0.45537677
vt 0.11769282 0.46485758
vt 0.1180549 0.45728138
vt 0.074341595 0.45424202
vt 0.062566176 0.4577955
vt 0.0641571 0.4490309
vt 0.017990392 0.4160427
vt 0.014518896 0.40636608
vt 0.02085272 0.38315648
vt 0.04905243 0.36019063
vt 0.05669987 0.36399287
vt 0.054347444 0.2830171
vt 0.06254991 0.27816087
vt 0.0155721 0.24620827
vt 0.76903516 0.25571117
vt 0.023704365 0.24131915
vt 0.0018252736 0.1819693
vt 0.7637897 0.18540311
vt 0.773757 0.18431515
vt 0.85248417 0.056839917
vt 0.009976892 0.18379211
vt 0.060003415 0.09731052
vt 0.842875 0.057919092
vt 0.06543967 0.10308707
vt 0.44556624 0.074800625
vt 0.1234696 0.06012043
vt 0.8400621 0.054742
vt 0.8456725 0.04751559
vt 0.12548482 0.0678644
vt 0.18753515 0.07717009
vt 0.19072104 0.084559046
vt 0.22182024 0.023248425
vt 0.22788174 0.028618068
vt 0.28136078 0.0019920063
vt 0.5901609 0.031793855
vt 0.68491495 0.021849971
vt 0.6837965 0.013912579
vt 0.58868694 0.024054274
vt 0.44595116 0.06653114
vt 0.35939008 0.04236537
vt 0.36226636 0.03503352
vt 0.28235886 0.010905988
vt 0 0.2
vt 0 0
vt 0 0
vt 0 0.2
vt 0.6 0
vt 1 0.4
vt 0 0.4
vt 0 0.4
vt 0 0.6
vt 0 0.6
vt 0 0.8
vt 0.2 0
vt 0.2 0
vt 0.4 0
vt 0.4 0
vt 0.6 0
vt 0.8 0
vt 0.8 0
vt 1 0.2
vt 1 0
vt 1 0
vt 1 0.2
vt 1 0.4
vt 0.4 1
vt 0.4 1
vt 0.2 1
vt 0.2 1
vt 0 1
vt 0 1
vt 0 0.8
vn -0 1 0
vn -0 1 0
vn -0 1 0
vn -0 1 0
vn -0 1 0
vn -0 1 0
vn -0 1 0
vn -0 1 0
vn -0 1 0
vn -0 1 0
vn -0 1 0
vn -0 1 0
vn -0 1 0
vn -0 1 0
vn -0 1 0
vn -0 1 0
vn -0 1 0
vn -0 1 0
vn -0 1 0
vn -0 1 0
vn -0 1 0
vn -0 1 0
vn -0 1 0
vn -0 1 0
vn -0 1 0
vn -0 1 0
vn -0 1 0
vn -0 1 0
vn -0 1 0
vn -0 1 0
vn -0 1 0
vn -0 1 0
vn -0 1 0
vn -0 1 0
vn -0 1 0
vn -0 1 0
vn -0 1 0
vn -0 1 0
vn -0 1 0
vn -0 1 0
vn -0 1 0
vn -0 1 0
vn -0 1 0
vn -0 1 0
vn -0 1 0
vn -0 1 0
vn -0 1 0
vn -0 1 0
vn -0 1 0
vn -0 1 0
vn -0 1 0
vn -0 1 0
vn -0 1 0
vn -0 1 0
vn -0 1 0
vn -0 1 0
vn -0 1 0
vn -0 1 0
vn -0 1 0
vn -0 1 0
vn -0 1 0
vn -0 1 0
vn -0 1 0
vn -0 1 0
vn -0 1 0
vn -0 1 0
vn -0 1 0
vn -0 1 0
vn -0 1 0
vn -0 1 0
vn -0 1 0
vn -0 1 0
vn -0 1 0
vn -0 1 0
vn -0 1 0
vn -0 1 0
vn -0 1 0
vn -0 1 0
vn -0 1 0
vn -0 1 0
vn -0 1 0
vn -0 1 0
vn -0 1 0
vn -0 1 0
vn -0 1 0
vn -0 1 0
vn -0 1 0
vn -0 1 0
vn -0 1 0
vn -0 1 0
vn -0 1 0
vn -0 1 0
vn -0 1 0
vn -0 1 0
vn -0 1 0
vn -0 1 0
vn -0 1 0
vn -0 1 0
vn -0 1 0
vn -0 1 0
vn -0 1 0
vn -0 1 0
vn -0 1 0
vn -0 1 0
vn -0 1 0
vn -0 1 0
vn -0 1 0
vn -0 1 0
vn -0 1 0
vn -0 1 0
vn -0 1 0
vn -0 1 0
vn -0 1 0
vn -0.014470348 0.99989533 0
vn -0 1 0
vn -0.020021047 0.9997967 -0.0023874075
vn -0 1 0
vn -0 1 0
vn -0 1 0
vn -0 1 0
vn -0.01076547 0.99950325 -0.029620018
vn -0 1 0
vn -0 1 0
vn -0 1 0
vn -0 1 0
vn -0 1 0
vn -0 1 0
vn -0 1 0
vn -0 1 0
vn -0 1 0
vn -0 1 0
vn -0 1 0
vn -0 1 0
vn -0 1 0
vn -0 1 0
vn -0 1 0
vn -0 1 0
vn -0 1 0
vn -0 1 0
vn -0 1 0
vn -0 1 0
vn -0 1 0
vn -0 1 0
vn -0 1 0
vn -0 1 0
vn -0 1 0
vn -0 1 0
vn -0 1 0
vn -0 1 0
vn -0 1 0
vn -0 1 0
vn -0 1 0
vn -0 1 0
vn -0 1 0
vn -0 1 0
vn -0 1 0
vn -0 1 0
vn -0 1 0
vn -0 1 0
vn -0 1 0
vn -0 1 0
vn -0 1 0
vn -0 1 0
vn -0 1 0
vn -0 1 0
vn -0 1 0
vn -0 1 0
vn -0 1 0
vn -0 1 0
vn -0 1 0
vn -0 1 0
vn -0 1 0
vn -0 1 0
vn -0 1 0
vn -0 1 0
vn -0 1 0
vn -0 1 0
vn -0 1 0
vn -0 1 0
vn -0 1 0
vn -0 1 0
vn -0 1 0
vn -0 1 0
vn -0 1 0
g Klingon_0
f 3/3/3 2/2/2 1/1/1
f 4/4/4 3/3/3 1/1/1
f 4/4/4 1/1/1 5/5/5
f 2/2/2 3/3/3 6/6/6
f 7/7/7 4/4/4 5/5/5
f 7/7/7 5/5/5 8/8/8
f 9/9/9 7/7/7 8/8/8
f 9/9/9 8/8/8 10/10/10
f 11/11/11 9/9/9 10/10/10
f 11/11/11 10/10/10 12/12/12
f 13/13/13 11/11/11 12/12/12
f 13/13/13 12/12/12 14/14/14
f 15/15/15 9/9/9 11/11/11
f 15/15/15 11/11/11 13/13/13
f 16/16/16 15/15/15 13/13/13
f 17/17/17 13/13/13 14/14/14
f 16/16/16 13/13/13 17/17/17
f 17/17/17 14/14/14 18/18/18
f 19/19/19 17/17/17 18/18/18
f 16/16/16 17/17/17 19/19/19
f 19/19/19 18/18/18 20/20/20
f 21/21/21 19/19/19 20/20/20
f 16/16/16 19/19/19 21/21/21
f 21/21/21 20/20/20 22/22/22
f 23/23/23 7/7/7 9/9/9
f 15/15/15 23/23/23 9/9/9
f 24/24/24 21/21/21 22/22/22
f 24/24/24 22/22/22 25/25/25
f 26/26/26 24/24/24 25/25/25
f 26/26/26 25/25/25 27/27/27
f 28/28/28 26/26/26 27/27/27
f 28/28/28 27/27/27 29/29/29
f 30/30/30 21/21/21 24/24/24
f 30/30/30 16/16/16 21/21/21
f 30/30/30 24/24/24 26/26/26
f 23/23/23 31/31/31 7/7/7
f 31/31/31 4/4/4 7/7/7
f 32/32/32 28/28/28 29/29/29
f 33/33/33 28/28/28 32/32/32
f 32/32/32 29/29/29 34/34/34
f 35/35/35 32/32/32 34/34/34
f 35/35/35 34/34/34 36/36/36
f 37/37/37 33/33/33 32/32/32
f 37/37/37 32/32/32 35/35/35
f 38/38/38 35/35/35 36/36/36
f 38/38/38 36/36/36 39/39/39
f 40/40/40 37/37/37 35/35/35
f 40/40/40 35/35/35 38/38/38
f 41/41/41 38/38/38 39/39/39
f 41/41/41 39/39/39 42/42/42
f 43/43/43 41/41/41 42/42/42
f 43/43/43 38/38/38 41/41/41
f 43/43/43 42/42/42 44/44/44
f 45/45/45 40/40/40 38/38/38
f 45/45/45 38/38/38 43/43/43
f 46/46/46 43/43/43 44/44/44
f 46/46/46 44/44/44 47/47/47
f 48/48/48 45/45/45 43/43/43
f 48/48/48 43/43/43 46/46/46
f 49/49/49 46/46/46 47/47/47
f 49/49/49 47/47/47 50/50/50
f 51/51/51 49/49/49 50/50/50
f 46/46/46 49/49/49 51/51/51
f 51/51/51 50/50/50 52/52/52
f 51/51/51 53/53/53 46/46/46
f 53/53/53 48/48/48 46/46/46
f 54/54/54 51/51/51 52/52/52
f 51/51/51 54/54/54 53/53/53
f 54/54/54 52/52/52 55/55/55
f 53/53/53 54/54/54 55/55/55
f 53/53/53 55/55/55 56/56/56
f 48/48/48 53/53/53 56/56/56
f 48/48/48 56/56/56 57/57/57
f 45/45/45 48/48/48 57/57/57
f 45/45/45 57/57/57 58/58/58
f 40/40/40 45/45/45 58/58/58
f 40/40/40 58/58/58 59/59/59
f 37/37/37 40/40/40 59/59/59
f 37/37/37 59/59/59 60/60/60
f 33/33/33 37/37/37 60/60/60
f 33/33/33 60/60/60 61/61/61
f 62/62/62 33/33/33 61/61/61
f 62/62/62 61/61/61 63/63/63
f 64/64/64 62/62/62 63/63/63
f 33/33/33 62/62/62 64/64/64
f 64/64/64 63/63/63 65/65/65
f 64/64/64 66/66/66 33/33/33
f 66/66/66 64/64/64 65/65/65
f 66/66/66 65/65/65 67/67/67
f 33/33/33 66/66/66 28/28/28
f 68/68/68 66/66/66 67/67/67
f 66/66/66 68/68/68 28/28/28
f 68/68/68 67/67/67 69/69/69
f 68/68/68 70/70/70 28/28/28
f 70/70/70 68/68/68 69/69/69
f 70/70/70 69/69/69 71/71/71
f 70/70/70 26/26/26 28/28/28
f 72/72/72 70/70/70 71/71/71
f 70/70/70 72/72/72 26/26/26
f 72/72/72 71/71/71 73/73/73
f 72/72/72 74/74/74 26/26/26
f 74/74/74 30/30/30 26/26/26
f 75/75/75 72/72/72 73/73/73
f 75/75/75 73/73/73 76/76/76
f 72/72/72 75/75/75 77/77/77
f 77/77/77 75/75/75 76/76/76
f 77/77/77 74/74/74 72/72/72
f 77/77/77 76/76/76 78/78/78
f 74/74/74 77/77/77 78/78/78
f 74/74/74 78/78/78 79/79/79
f 30/30/30 74/74/74 79/79/79
f 30/30/30 79/79/79 80/80/80
f 16/16/16 30/30/30 80/80/80
f 16/16/16 80/80/80 81/81/81
f 15/15/15 16/16/16 81/81/81
f 15/15/15 81/81/81 82/82/82
f 23/23/23 15/15/15 82/82/82
f 23/23/23 82/82/82 83/83/83
f 31/31/31 23/23/23 83/83/83
f 31/31/31 83/83/83 84/84/84
f 85/85/85 31/31/31 84/84/84
f 85/85/85 84/84/84 86/86/86
f 31/31/31 85/85/85 4/4/4
f 85/85/85 87/87/87 4/4/4
f 87/87/87 88/88/88 4/4/4
f 89/89/89 85/85/85 86/86/86
f 89/89/89 86/86/86 90/90/90
f 91/91/91 85/85/85 89/89/89
f 87/87/87 85/85/85 91/91/91
f 92/92/92 89/89/89 90/90/90
f 89/89/89 92/92/92 91/91/91
f 92/92/92 90/90/90 93/93/93
f 91/91/91 92/92/92 93/93/93
f 91/91/91 93/93/93 94/94/94
f 95/95/95 91/91/91 94/94/94
f 87/87/87 91/91/91 95/95/95
f 87/87/87 95/95/95 96/96/96
f 95/95/95 94/94/94 97/97/97
f 98/98/98 95/95/95 97/97/97
f 96/96/96 95/95/95 98/98/98
f 98/98/98 97/97/97 99/99/99
f 88/88/88 100/100/100 4/4/4
f 100/100/100 3/3/3 4/4/4
f 101/101/101 98/98/98 99/99/99
f 101/101/101 99/99/99 102/102/102
f 103/103/103 101/101/101 102/102/102
f 103/103/103 102/102/102 104/104/104
f 105/105/105 103/103/103 104/104/104
f 105/105/105 104/104/104 106/106/106
f 107/107/107 101/101/101 103/103/103
f 107/107/107 103/103/103 105/105/105
f 108/108/108 105/105/105 106/106/106
f 105/105/105 108/108/108 107/107/107
f 108/108/108 106/106/106 109/109/109
f 107/107/107 108/108/108 109/109/109
f 107/107/107 109/109/109 110/110/110
f 107/107/107 111/111/111 101/101/101
f 111/111/111 107/107/107 110/110/110
f 111/111/111 98/98/98 101/101/101
f 111/111/111 110/110/110 112/112/112
f 111/111/111 113/113/113 98/98/98
f 113/113/113 111/111/111 112/112/112
f 113/113/113 112/112/112 114/114/114
f 96/96/96 98/98/98 113/113/113
f 115/115/115 113/113/113 114/114/114
f 113/113/113 115/115/115 96/96/96
f 115/115/115 114/114/114 116/116/116
f 96/96/96 115/115/115 116/116/116
f 96/96/96 116/116/116 117/117/117
f 118/118/118 96/96/96 117/117/117
f 118/118/118 117/117/117 119/119/119
f 96/96/96 118/118/118 87/87/87
f 87/87/87 118/118/118 119/119/119
f 87/87/87 119/119/119 120/120/120
f 88/88/88 87/87/87 120/120/120
f 88/88/88 120/120/120 121/121/121
f 100/100/100 88/88/88 121/121/121
f 100/100/100 121/121/121 122/122/122
f 123/123/123 100/100/100 122/122/122
f 123/123/123 122/122/122 124/124/124
f 100/100/100 123/123/123 3/3/3
f 125/125/125 123/123/123 124/124/124
f 123/123/123 125/125/125 3/3/3
f 125/125/125 124/124/124 126/126/126
f 125/125/125 127/127/127 3/3/3
f 3/3/3 127/127/127 6/6/6
f 128/128/128 125/125/125 126/126/126
f 125/125/125 128/128/128 127/127/127
f 128/128/128 126/126/126 129/129/129
f 127/127/127 130/130/130 6/6/6
f 128/128/128 130/130/130 127/127/127
f 130/130/130 131/131/131 6/6/6
f 131/131/131 130/130/130 132/132/132
f 133/133/133 128/128/128 129/129/129
f 128/128/128 133/133/133 130/130/130
f 133/133/133 129/129/129 134/134/134
f 130/130/130 135/135/135 132/132/132
f 133/133/133 135/135/135 130/130/130
f 136/136/136 133/133/133 134/134/134
f 133/133/133 136/136/136 135/135/135
f 136/136/136 137/137/137 135/135/135
f 136/136/136 134/134/134 138/138/138
f 135/135/135 139/139/139 132/132/132
f 139/139/139 140/140/140 132/132/132
f 141/141/141 136/136/136 138/138/138
f 141/141/141 138/138/138 142/142/142
f 143/143/143 136/136/136 141/141/141
f 143/143/143 141/141/141 142/142/142
f 136/136/136 143/143/143 137/137/137
f 143/143/143 142/142/142 144/144/144
f 145/145/145 143/143/143 144/144/144
f 137/137/137 143/143/143 145/145/145
f 145/145/145 144/144/144 146/146/146
f 147/147/147 139/139/139 135/135/135
f 137/137/137 147/147/147 135/135/135
f 139/139/139 148/148/148 140/140/140
f 147/147/147 148/148/148 139/139/139
f 148/148/148 149/149/149 140/140/140
f 148/148/148 147/147/147 149/149/149
f 147/147/147 150/150/150 149/149/149
f 147/147/147 137/137/137 150/150/150
f 137/137/137 151/151/151 150/150/150
f 137/137/137 152/152/152 151/151/151
f 145/145/145 152/152/152 137/137/137
f 152/152/152 153/153/153 151/151/151
f 154/154/154 146/146/146 153/153/153
f 154/154/154 145/145/145 146/146/146
f 145/145/145 154/154/154 152/152/152
f 152/152/152 154/154/154 153/153/153
f 157/157/157 156/156/156 155/155/155
f 156/156/156 158/158/158 155/155/155
f 158/158/158 156/156/156 159/159/159
f 158/158/158 159/159/159 160/160/160
f 155/155/155 158/158/158 161/161/161
f 158/158/158 162/162/162 161/161/161
f 162/162/162 158/158/158 160/160/160
f 161/161/161 162/162/162 163/163/163
f 162/162/162 164/164/164 163/163/163
f 164/164/164 162/162/162 160/160/160
f 163/163/163 164/164/164 165/165/165
f 166/166/166 156/156/156 157/157/157
f 167/167/167 166/166/166 157/157/157
f 156/156/156 166/166/166 168/168/168
f 168/168/168 166/166/166 167/167/167
f 156/156/156 168/168/168 159/159/159
f 169/169/169 168/168/168 167/167/167
f 159/159/159 168/168/168 169/169/169
f 170/170/170 159/159/159 169/169/169
f 171/171/171 159/159/159 170/170/170
f 172/172/172 171/171/171 170/170/170
f 159/159/159 171/171/171 173/173/173
f 173/173/173 160/160/160 159/159/159
f 174/174/174 171/171/171 172/172/172
f 171/171/171 174/174/174 173/173/173
f 175/175/175 174/174/174 172/172/172
f 173/173/173 174/174/174 175/175/175
f 176/176/176 173/173/173 175/175/175
f 160/160/160 173/173/173 176/176/176
f 177/177/177 160/160/160 176/176/176
f 178/178/178 160/160/160 177/177/177
f 179/179/179 178/178/178 177/177/177
f 164/164/164 160/160/160 178/178/178
f 180/180/180 178/178/178 179/179/179
f 181/181/181 180/180/180 179/179/179
f 180/180/180 182/182/182 178/178/178
f 182/182/182 180/180/180 181/181/181
f 164/164/164 178/178/178 182/182/182
f 183/183/183 182/182/182 181/181/181
f 182/182/182 184/184/184 164/164/164
f 184/184/184 182/182/182 183/183/183
f 164/164/164 184/184/184 165/165/165
f 165/165/165 184/184/184 183/183/183
